<svg width="400" height="148" viewBox="0 0 400 148" fill="none" xmlns="http://www.w3.org/2000/svg">
<rect width="399.999" height="147.233" rx="16" fill="white"/>
<path d="M112.681 72.6022C106.457 67.3402 97.0804 65.2308 88.7701 71.3736C88.3876 71.6518 87.9124 71.1766 88.2022 70.8057C90.1725 68.2674 92.4558 65.5321 94.2987 62.7852C96.1763 59.9688 98.9812 57.9521 102.215 56.9669C119.426 51.7513 114.257 26.3223 114.257 26.3223C114.257 26.3223 87.669 28.0376 90.9491 50.9747C91.4938 54.8111 90.4739 58.717 88.0747 61.7653C85.1307 65.4858 81.7116 69.044 79.2313 71.617C78.7097 72.1502 77.8289 71.6402 78.0375 70.9216C80.4367 62.8432 82.1868 50.3489 73.8766 42.2936L62.1819 32.581L59.9334 35.5481C53.2458 44.3683 55.2046 56.8046 64.0364 63.4806C69.1014 67.3054 71.3962 71.4663 71.0369 76.0329C70.8167 78.7682 69.5766 81.3296 67.7221 83.3579C64.2334 87.1827 60.9766 91.2857 58.4615 96.0377C58.1138 96.6983 57.1054 96.4433 57.1402 95.69C57.4995 87.8434 56.7461 70.1566 43.5332 63.8399L28.7439 58.1259L27.5965 61.5451C23.876 72.579 29.9609 84.3663 40.9833 88.1099C50.5685 91.3668 53.9876 97.5444 51.6811 106.805C51.5768 107.141 49.9078 116.68 50.1396 120.91H60.7679C61.1272 114.35 68.0119 110.039 73.9809 112.716C75.6615 113.469 77.3884 114.547 79.1617 115.938C88.6658 123.425 102.667 121.652 110.143 112.137L112.275 109.424L98.8305 99.7697C89.6046 92.5142 77.2957 95.7943 68.1857 102.007C67.4208 102.528 66.4472 101.694 66.876 100.859C77.8868 79.255 92.2008 79.3013 97.8105 84.0997C104.614 89.918 114.918 88.8749 120.69 82.0482L122.347 80.0895L112.669 72.6022H112.681Z" fill="#51C233"/>
<path d="M224.245 51.5948C243.562 51.5948 256.66 64.561 256.66 85.3292C256.66 87.7051 256.528 90.0956 256.264 92.8673H209.96C210.752 101.066 216.179 105.569 225.037 105.569C230.992 105.569 234.82 103.061 236.551 99.4825H255.472C251.629 112.448 241.582 120.91 224.92 120.91C204.944 120.91 191.714 107.021 191.714 85.8566H191.699C191.7 65.0887 204.929 51.595 224.245 51.5948ZM347.434 51.5948C363.436 51.5948 373.497 61.9208 373.497 79.2423V118.931H354.973V81.2218C354.973 72.4953 350.998 68.257 343.591 68.257C336.184 68.2571 331.285 73.4195 331.285 81.7501V118.916H312.761V53.5753H329.041V60.1896C332.884 54.499 339.895 51.5949 347.434 51.5948ZM195.409 42.4562H177.281C173.438 42.4562 171.325 44.0402 171.325 47.8829V53.5734H191.434V69.7072H171.325V118.914H152.801V69.7072H136.535V53.5734H152.801V45.6388C152.801 32.9373 160.076 26.3224 172.646 26.3224H195.409V42.4562ZM279.383 65.0665C280.967 57.66 286.262 53.5538 294.593 53.5538H306.239V55.797C306.239 63.4676 300.02 69.6865 292.349 69.6866C285.074 69.6866 281.627 73.398 281.627 80.8048V118.909H263.103V53.5538H279.383V65.0665ZM224.245 66.1447C215.255 66.1448 210.357 71.1754 209.828 78.8458H238.003V78.5822C238.003 71.1754 233.236 66.1447 224.245 66.1447Z" fill="#1E1F24"/>
</svg>
